<mxfile host="app.diagrams.net" modified="2023-11-12T13:51:56.716Z" agent="Mozilla/5.0 (Windows NT 10.0; Win64; x64) AppleWebKit/537.36 (KHTML, like Gecko) Chrome/119.0.0.0 Safari/537.36" etag="2cRGO_c4zGUCCXYS1GfS" version="22.1.0" type="github">
  <diagram name="Page-1" id="_nMl6FJfx0xCbWasfPqS">
    <mxGraphModel dx="4366" dy="1014" grid="1" gridSize="10" guides="1" tooltips="1" connect="1" arrows="0" fold="1" page="1" pageScale="1" pageWidth="850" pageHeight="1100" math="0" shadow="0">
      <root>
        <mxCell id="0" />
        <mxCell id="1" parent="0" />
        <mxCell id="VAxVF2x6nKeMdrS-wdlX-37" value="" style="rounded=0;whiteSpace=wrap;html=1;fillColor=none;strokeColor=#330000;dashed=1;dashPattern=8 8;" vertex="1" parent="1">
          <mxGeometry x="-1360" y="140" width="1320" height="825" as="geometry" />
        </mxCell>
        <mxCell id="VAxVF2x6nKeMdrS-wdlX-39" value="" style="rounded=1;whiteSpace=wrap;html=1;fillColor=#fff2cc;strokeColor=#d6b656;" vertex="1" parent="1">
          <mxGeometry x="90" y="158" width="400" height="532" as="geometry" />
        </mxCell>
        <mxCell id="VAxVF2x6nKeMdrS-wdlX-79" style="rounded=0;orthogonalLoop=1;jettySize=auto;html=1;exitX=0.5;exitY=0.5;exitDx=0;exitDy=0;endArrow=none;endFill=0;exitPerimeter=0;" edge="1" parent="1" target="VAxVF2x6nKeMdrS-wdlX-68">
          <mxGeometry relative="1" as="geometry">
            <mxPoint x="280" y="351" as="sourcePoint" />
            <mxPoint x="420" y="461" as="targetPoint" />
          </mxGeometry>
        </mxCell>
        <mxCell id="VAxVF2x6nKeMdrS-wdlX-78" style="rounded=0;orthogonalLoop=1;jettySize=auto;html=1;exitX=0.5;exitY=0.5;exitDx=0;exitDy=0;endArrow=none;endFill=0;entryX=0.357;entryY=0.406;entryDx=0;entryDy=0;entryPerimeter=0;exitPerimeter=0;" edge="1" parent="1" source="VAxVF2x6nKeMdrS-wdlX-70" target="VAxVF2x6nKeMdrS-wdlX-65">
          <mxGeometry relative="1" as="geometry" />
        </mxCell>
        <mxCell id="VAxVF2x6nKeMdrS-wdlX-71" style="edgeStyle=orthogonalEdgeStyle;rounded=0;orthogonalLoop=1;jettySize=auto;html=1;exitX=0.5;exitY=1;exitDx=0;exitDy=0;entryX=0.381;entryY=0.625;entryDx=0;entryDy=0;entryPerimeter=0;endArrow=none;endFill=0;" edge="1" parent="1" source="VAxVF2x6nKeMdrS-wdlX-54" target="VAxVF2x6nKeMdrS-wdlX-70">
          <mxGeometry relative="1" as="geometry" />
        </mxCell>
        <mxCell id="VAxVF2x6nKeMdrS-wdlX-36" style="edgeStyle=orthogonalEdgeStyle;rounded=0;orthogonalLoop=1;jettySize=auto;html=1;exitX=0.5;exitY=1;exitDx=0;exitDy=0;entryX=0.5;entryY=0.5;entryDx=0;entryDy=0;entryPerimeter=0;endArrow=none;endFill=0;" edge="1" parent="1" source="VAxVF2x6nKeMdrS-wdlX-25" target="VAxVF2x6nKeMdrS-wdlX-33">
          <mxGeometry relative="1" as="geometry" />
        </mxCell>
        <mxCell id="VAxVF2x6nKeMdrS-wdlX-1" value="" style="sketch=0;pointerEvents=1;shadow=0;dashed=0;html=1;strokeColor=none;fillColor=#505050;labelPosition=center;verticalLabelPosition=bottom;outlineConnect=0;verticalAlign=top;align=center;shape=mxgraph.office.clouds.cloud;" vertex="1" parent="1">
          <mxGeometry x="-650" y="80" width="94" height="55" as="geometry" />
        </mxCell>
        <mxCell id="VAxVF2x6nKeMdrS-wdlX-2" value="" style="sketch=0;pointerEvents=1;shadow=0;dashed=0;html=1;strokeColor=none;fillColor=#505050;labelPosition=center;verticalLabelPosition=bottom;outlineConnect=0;verticalAlign=top;align=center;shape=mxgraph.office.clouds.cloud;" vertex="1" parent="1">
          <mxGeometry x="-410" y="80" width="94" height="55" as="geometry" />
        </mxCell>
        <mxCell id="VAxVF2x6nKeMdrS-wdlX-3" value="&lt;b&gt;FIREWALL &lt;br&gt;/ LOAD BALANCER &lt;br&gt;/ AUTO FAILOVER&lt;/b&gt;" style="sketch=0;points=[[0.015,0.015,0],[0.985,0.015,0],[0.985,0.985,0],[0.015,0.985,0],[0.25,0,0],[0.5,0,0],[0.75,0,0],[1,0.25,0],[1,0.5,0],[1,0.75,0],[0.75,1,0],[0.5,1,0],[0.25,1,0],[0,0.75,0],[0,0.5,0],[0,0.25,0]];verticalLabelPosition=bottom;html=1;verticalAlign=top;aspect=fixed;align=center;pointerEvents=1;shape=mxgraph.cisco19.rect;prIcon=firewall;fillColor=#FAFAFA;strokeColor=#005073;" vertex="1" parent="1">
          <mxGeometry x="-510" y="310" width="64" height="50" as="geometry" />
        </mxCell>
        <mxCell id="VAxVF2x6nKeMdrS-wdlX-9" style="rounded=0;orthogonalLoop=1;jettySize=auto;html=1;exitX=0.5;exitY=0;exitDx=0;exitDy=0;exitPerimeter=0;endArrow=none;endFill=0;" edge="1" parent="1" target="VAxVF2x6nKeMdrS-wdlX-1">
          <mxGeometry relative="1" as="geometry">
            <mxPoint x="-603" y="210" as="sourcePoint" />
          </mxGeometry>
        </mxCell>
        <mxCell id="VAxVF2x6nKeMdrS-wdlX-10" style="rounded=0;orthogonalLoop=1;jettySize=auto;html=1;endArrow=none;endFill=0;" edge="1" parent="1" target="VAxVF2x6nKeMdrS-wdlX-2">
          <mxGeometry relative="1" as="geometry">
            <mxPoint x="-363" y="210" as="sourcePoint" />
          </mxGeometry>
        </mxCell>
        <mxCell id="VAxVF2x6nKeMdrS-wdlX-8" style="rounded=0;orthogonalLoop=1;jettySize=auto;html=1;exitX=1;exitY=0.75;exitDx=0;exitDy=0;entryX=0.5;entryY=0;entryDx=0;entryDy=0;entryPerimeter=0;endArrow=none;endFill=0;" edge="1" parent="1" source="VAxVF2x6nKeMdrS-wdlX-19" target="VAxVF2x6nKeMdrS-wdlX-3">
          <mxGeometry relative="1" as="geometry">
            <mxPoint x="-563" y="230" as="sourcePoint" />
          </mxGeometry>
        </mxCell>
        <mxCell id="VAxVF2x6nKeMdrS-wdlX-11" value="ISP 2" style="text;html=1;strokeColor=none;fillColor=none;align=center;verticalAlign=middle;whiteSpace=wrap;rounded=0;" vertex="1" parent="1">
          <mxGeometry x="-393" y="100" width="60" height="30" as="geometry" />
        </mxCell>
        <mxCell id="VAxVF2x6nKeMdrS-wdlX-12" value="ISP 1" style="text;html=1;strokeColor=none;fillColor=none;align=center;verticalAlign=middle;whiteSpace=wrap;rounded=0;" vertex="1" parent="1">
          <mxGeometry x="-633" y="100" width="60" height="30" as="geometry" />
        </mxCell>
        <mxCell id="VAxVF2x6nKeMdrS-wdlX-14" style="rounded=0;orthogonalLoop=1;jettySize=auto;html=1;exitX=0;exitY=0.75;exitDx=0;exitDy=0;entryX=0.5;entryY=0;entryDx=0;entryDy=0;entryPerimeter=0;endArrow=none;endFill=0;" edge="1" parent="1" source="VAxVF2x6nKeMdrS-wdlX-20" target="VAxVF2x6nKeMdrS-wdlX-3">
          <mxGeometry relative="1" as="geometry">
            <mxPoint x="-403" y="230" as="sourcePoint" />
            <mxPoint x="-468" y="320" as="targetPoint" />
          </mxGeometry>
        </mxCell>
        <mxCell id="VAxVF2x6nKeMdrS-wdlX-16" style="rounded=0;orthogonalLoop=1;jettySize=auto;html=1;exitX=1;exitY=0.5;exitDx=0;exitDy=0;exitPerimeter=0;entryX=0;entryY=0.5;entryDx=0;entryDy=0;entryPerimeter=0;endArrow=none;endFill=0;" edge="1" parent="1" source="VAxVF2x6nKeMdrS-wdlX-3" target="VAxVF2x6nKeMdrS-wdlX-24">
          <mxGeometry relative="1" as="geometry">
            <mxPoint x="-350" y="386.5" as="targetPoint" />
          </mxGeometry>
        </mxCell>
        <mxCell id="VAxVF2x6nKeMdrS-wdlX-19" value="" style="image;html=1;image=img/lib/clip_art/networking/Wireless_Router_128x128.png" vertex="1" parent="1">
          <mxGeometry x="-636" y="170" width="80" height="80" as="geometry" />
        </mxCell>
        <mxCell id="VAxVF2x6nKeMdrS-wdlX-20" value="" style="image;html=1;image=img/lib/clip_art/networking/Wireless_Router_128x128.png" vertex="1" parent="1">
          <mxGeometry x="-403" y="170" width="80" height="80" as="geometry" />
        </mxCell>
        <mxCell id="VAxVF2x6nKeMdrS-wdlX-21" value="&lt;span style=&quot;font-weight: normal; font-size: 13px;&quot;&gt;Router&lt;/span&gt;" style="text;html=1;strokeColor=none;fillColor=none;align=center;verticalAlign=middle;whiteSpace=wrap;rounded=0;fontSize=13;fontStyle=1" vertex="1" parent="1">
          <mxGeometry x="-633" y="250" width="60" height="30" as="geometry" />
        </mxCell>
        <mxCell id="VAxVF2x6nKeMdrS-wdlX-23" value="&lt;span style=&quot;font-weight: normal; font-size: 13px;&quot;&gt;Router&lt;/span&gt;" style="text;html=1;strokeColor=none;fillColor=none;align=center;verticalAlign=middle;whiteSpace=wrap;rounded=0;fontSize=13;fontStyle=1" vertex="1" parent="1">
          <mxGeometry x="-393" y="250" width="60" height="30" as="geometry" />
        </mxCell>
        <mxCell id="VAxVF2x6nKeMdrS-wdlX-32" style="edgeStyle=orthogonalEdgeStyle;rounded=0;orthogonalLoop=1;jettySize=auto;html=1;exitX=1;exitY=0.75;exitDx=0;exitDy=0;endArrow=none;endFill=0;" edge="1" parent="1" source="VAxVF2x6nKeMdrS-wdlX-24" target="VAxVF2x6nKeMdrS-wdlX-30">
          <mxGeometry relative="1" as="geometry">
            <Array as="points">
              <mxPoint x="-240" y="355" />
              <mxPoint x="-240" y="335" />
            </Array>
          </mxGeometry>
        </mxCell>
        <mxCell id="VAxVF2x6nKeMdrS-wdlX-212" style="edgeStyle=orthogonalEdgeStyle;rounded=0;orthogonalLoop=1;jettySize=auto;html=1;exitX=0;exitY=1;exitDx=0;exitDy=0;entryX=0.5;entryY=1;entryDx=0;entryDy=0;endArrow=none;endFill=0;" edge="1" parent="1" source="VAxVF2x6nKeMdrS-wdlX-24" target="VAxVF2x6nKeMdrS-wdlX-211">
          <mxGeometry relative="1" as="geometry" />
        </mxCell>
        <mxCell id="VAxVF2x6nKeMdrS-wdlX-24" value="" style="image;html=1;image=img/lib/clip_art/networking/Wireless_Router_N_128x128.png" vertex="1" parent="1">
          <mxGeometry x="-360" y="295" width="80" height="80" as="geometry" />
        </mxCell>
        <mxCell id="VAxVF2x6nKeMdrS-wdlX-25" value="&lt;span style=&quot;font-weight: normal; font-size: 14px;&quot;&gt;Router&lt;/span&gt;" style="text;html=1;strokeColor=none;fillColor=none;align=center;verticalAlign=middle;whiteSpace=wrap;rounded=0;fontSize=14;fontStyle=1" vertex="1" parent="1">
          <mxGeometry x="-350" y="375" width="60" height="30" as="geometry" />
        </mxCell>
        <mxCell id="VAxVF2x6nKeMdrS-wdlX-26" value="" style="image;points=[];aspect=fixed;html=1;align=center;shadow=0;dashed=0;image=img/lib/allied_telesis/computer_and_terminals/Server_Desktop.svg;" vertex="1" parent="1">
          <mxGeometry x="-205" y="173" width="68.63" height="87" as="geometry" />
        </mxCell>
        <mxCell id="VAxVF2x6nKeMdrS-wdlX-27" style="edgeStyle=orthogonalEdgeStyle;rounded=0;orthogonalLoop=1;jettySize=auto;html=1;exitX=1;exitY=0.5;exitDx=0;exitDy=0;entryX=0.015;entryY=0.513;entryDx=0;entryDy=0;entryPerimeter=0;endArrow=none;endFill=0;" edge="1" parent="1" source="VAxVF2x6nKeMdrS-wdlX-24" target="VAxVF2x6nKeMdrS-wdlX-26">
          <mxGeometry relative="1" as="geometry">
            <Array as="points">
              <mxPoint x="-260" y="335" />
              <mxPoint x="-260" y="218" />
            </Array>
          </mxGeometry>
        </mxCell>
        <mxCell id="VAxVF2x6nKeMdrS-wdlX-29" value="&lt;span style=&quot;font-weight: 400; font-size: 13px;&quot;&gt;Data Server&lt;/span&gt;" style="text;html=1;strokeColor=none;fillColor=none;align=center;verticalAlign=middle;whiteSpace=wrap;rounded=0;fontSize=13;fontStyle=1" vertex="1" parent="1">
          <mxGeometry x="-220.68" y="260" width="100" height="30" as="geometry" />
        </mxCell>
        <mxCell id="VAxVF2x6nKeMdrS-wdlX-30" value="" style="image;points=[];aspect=fixed;html=1;align=center;shadow=0;dashed=0;image=img/lib/allied_telesis/computer_and_terminals/Server_Desktop.svg;" vertex="1" parent="1">
          <mxGeometry x="-205" y="296" width="68.63" height="87" as="geometry" />
        </mxCell>
        <mxCell id="VAxVF2x6nKeMdrS-wdlX-31" value="&lt;span style=&quot;font-weight: 400; font-size: 13px;&quot;&gt;Print Server&lt;/span&gt;" style="text;html=1;strokeColor=none;fillColor=none;align=center;verticalAlign=middle;whiteSpace=wrap;rounded=0;fontSize=13;fontStyle=1" vertex="1" parent="1">
          <mxGeometry x="-220.68" y="383" width="100" height="30" as="geometry" />
        </mxCell>
        <mxCell id="VAxVF2x6nKeMdrS-wdlX-95" style="rounded=0;orthogonalLoop=1;jettySize=auto;html=1;exitX=1;exitY=0.5;exitDx=0;exitDy=0;entryX=0.5;entryY=0.5;entryDx=0;entryDy=0;endArrow=none;endFill=0;entryPerimeter=0;edgeStyle=orthogonalEdgeStyle;" edge="1" parent="1" source="VAxVF2x6nKeMdrS-wdlX-33" target="VAxVF2x6nKeMdrS-wdlX-94">
          <mxGeometry relative="1" as="geometry" />
        </mxCell>
        <mxCell id="VAxVF2x6nKeMdrS-wdlX-152" style="edgeStyle=orthogonalEdgeStyle;rounded=0;orthogonalLoop=1;jettySize=auto;html=1;exitX=0;exitY=0.5;exitDx=0;exitDy=0;entryX=0.25;entryY=0;entryDx=0;entryDy=0;endArrow=none;endFill=0;" edge="1" parent="1" source="VAxVF2x6nKeMdrS-wdlX-33" target="VAxVF2x6nKeMdrS-wdlX-151">
          <mxGeometry relative="1" as="geometry" />
        </mxCell>
        <mxCell id="VAxVF2x6nKeMdrS-wdlX-180" style="edgeStyle=orthogonalEdgeStyle;rounded=0;orthogonalLoop=1;jettySize=auto;html=1;exitX=0;exitY=0.25;exitDx=0;exitDy=0;entryX=0.25;entryY=0;entryDx=0;entryDy=0;endArrow=none;endFill=0;" edge="1" parent="1" source="VAxVF2x6nKeMdrS-wdlX-33" target="VAxVF2x6nKeMdrS-wdlX-179">
          <mxGeometry relative="1" as="geometry" />
        </mxCell>
        <mxCell id="VAxVF2x6nKeMdrS-wdlX-208" style="edgeStyle=orthogonalEdgeStyle;rounded=0;orthogonalLoop=1;jettySize=auto;html=1;exitX=0;exitY=0;exitDx=0;exitDy=0;entryX=0.25;entryY=0;entryDx=0;entryDy=0;endArrow=none;endFill=0;" edge="1" parent="1" source="VAxVF2x6nKeMdrS-wdlX-33" target="VAxVF2x6nKeMdrS-wdlX-207">
          <mxGeometry relative="1" as="geometry">
            <Array as="points">
              <mxPoint x="-1089" y="440" />
            </Array>
          </mxGeometry>
        </mxCell>
        <mxCell id="VAxVF2x6nKeMdrS-wdlX-33" value="" style="image;html=1;image=img/lib/clip_art/networking/Switch_128x128.png" vertex="1" parent="1">
          <mxGeometry x="-360" y="440" width="80" height="80" as="geometry" />
        </mxCell>
        <mxCell id="VAxVF2x6nKeMdrS-wdlX-34" value="&lt;span style=&quot;font-weight: 400; font-size: 13px;&quot;&gt;Switch&lt;/span&gt;" style="text;html=1;strokeColor=none;fillColor=none;align=center;verticalAlign=middle;whiteSpace=wrap;rounded=0;fontSize=13;fontStyle=1" vertex="1" parent="1">
          <mxGeometry x="-370" y="496" width="100" height="30" as="geometry" />
        </mxCell>
        <mxCell id="VAxVF2x6nKeMdrS-wdlX-38" value="&lt;span style=&quot;font-size: 13px;&quot;&gt;New Campus&lt;/span&gt;" style="text;html=1;strokeColor=none;fillColor=none;align=center;verticalAlign=middle;whiteSpace=wrap;rounded=0;fontSize=13;fontStyle=1" vertex="1" parent="1">
          <mxGeometry x="-790" y="156" width="100" height="30" as="geometry" />
        </mxCell>
        <mxCell id="VAxVF2x6nKeMdrS-wdlX-40" value="" style="verticalLabelPosition=bottom;sketch=0;html=1;fillColor=#282828;strokeColor=none;verticalAlign=top;pointerEvents=1;align=center;shape=mxgraph.cisco_safe.technology_icons.icon23;" vertex="1" parent="1">
          <mxGeometry x="-213.24" y="440" width="85.11" height="40" as="geometry" />
        </mxCell>
        <mxCell id="VAxVF2x6nKeMdrS-wdlX-41" style="edgeStyle=orthogonalEdgeStyle;rounded=0;orthogonalLoop=1;jettySize=auto;html=1;exitX=1;exitY=1;exitDx=0;exitDy=0;entryX=0.009;entryY=0.45;entryDx=0;entryDy=0;entryPerimeter=0;endArrow=none;endFill=0;" edge="1" parent="1" source="VAxVF2x6nKeMdrS-wdlX-24" target="VAxVF2x6nKeMdrS-wdlX-40">
          <mxGeometry relative="1" as="geometry" />
        </mxCell>
        <mxCell id="VAxVF2x6nKeMdrS-wdlX-42" value="&lt;span style=&quot;font-weight: 400; font-size: 13px;&quot;&gt;OLT&lt;/span&gt;" style="text;html=1;strokeColor=none;fillColor=none;align=center;verticalAlign=middle;whiteSpace=wrap;rounded=0;fontSize=13;fontStyle=1" vertex="1" parent="1">
          <mxGeometry x="-220.24" y="480" width="100" height="30" as="geometry" />
        </mxCell>
        <mxCell id="VAxVF2x6nKeMdrS-wdlX-50" style="rounded=0;orthogonalLoop=1;jettySize=auto;html=1;exitX=1;exitY=0;exitDx=0;exitDy=0;entryX=0;entryY=0.5;entryDx=0;entryDy=0;endArrow=none;endFill=0;" edge="1" parent="1" source="VAxVF2x6nKeMdrS-wdlX-44" target="VAxVF2x6nKeMdrS-wdlX-49">
          <mxGeometry relative="1" as="geometry" />
        </mxCell>
        <mxCell id="VAxVF2x6nKeMdrS-wdlX-44" value="" style="ellipse;whiteSpace=wrap;html=1;aspect=fixed;fillColor=#bac8d3;strokeColor=#23445d;" vertex="1" parent="1">
          <mxGeometry y="450" width="20" height="20" as="geometry" />
        </mxCell>
        <mxCell id="VAxVF2x6nKeMdrS-wdlX-47" style="edgeStyle=orthogonalEdgeStyle;rounded=0;orthogonalLoop=1;jettySize=auto;html=1;exitX=0;exitY=0.5;exitDx=0;exitDy=0;entryX=0.916;entryY=0.497;entryDx=0;entryDy=0;entryPerimeter=0;endArrow=none;endFill=0;" edge="1" parent="1" source="VAxVF2x6nKeMdrS-wdlX-44" target="VAxVF2x6nKeMdrS-wdlX-40">
          <mxGeometry relative="1" as="geometry" />
        </mxCell>
        <mxCell id="VAxVF2x6nKeMdrS-wdlX-48" value="&lt;span style=&quot;font-weight: 400; font-size: 13px;&quot;&gt;PASSIVE OPTICAL SPLITTER&lt;/span&gt;" style="text;html=1;strokeColor=none;fillColor=none;align=center;verticalAlign=middle;whiteSpace=wrap;rounded=0;fontSize=13;fontStyle=1" vertex="1" parent="1">
          <mxGeometry x="-34" y="474" width="120" height="30" as="geometry" />
        </mxCell>
        <mxCell id="VAxVF2x6nKeMdrS-wdlX-56" style="rounded=0;orthogonalLoop=1;jettySize=auto;html=1;exitX=1;exitY=0.5;exitDx=0;exitDy=0;entryX=0;entryY=0.75;entryDx=0;entryDy=0;endArrow=none;endFill=0;" edge="1" parent="1" source="VAxVF2x6nKeMdrS-wdlX-49" target="VAxVF2x6nKeMdrS-wdlX-53">
          <mxGeometry relative="1" as="geometry" />
        </mxCell>
        <mxCell id="VAxVF2x6nKeMdrS-wdlX-49" value="" style="shape=image;html=1;verticalAlign=top;verticalLabelPosition=bottom;labelBackgroundColor=#ffffff;imageAspect=0;aspect=fixed;image=https://cdn3.iconfinder.com/data/icons/user-interface-798/32/User_interface_cube_3d_shape_design_box-128.png" vertex="1" parent="1">
          <mxGeometry x="120" y="200" width="60" height="60" as="geometry" />
        </mxCell>
        <mxCell id="VAxVF2x6nKeMdrS-wdlX-51" value="&lt;span style=&quot;font-weight: 400;&quot;&gt;ONU&lt;/span&gt;" style="text;html=1;strokeColor=none;fillColor=none;align=center;verticalAlign=middle;whiteSpace=wrap;rounded=0;fontSize=13;fontStyle=1" vertex="1" parent="1">
          <mxGeometry x="100" y="260" width="120" height="30" as="geometry" />
        </mxCell>
        <mxCell id="VAxVF2x6nKeMdrS-wdlX-55" value="" style="group" vertex="1" connectable="0" parent="1">
          <mxGeometry x="240" y="170" width="80" height="110" as="geometry" />
        </mxCell>
        <mxCell id="VAxVF2x6nKeMdrS-wdlX-53" value="" style="image;html=1;image=img/lib/clip_art/networking/Wireless_Router_N_128x128.png" vertex="1" parent="VAxVF2x6nKeMdrS-wdlX-55">
          <mxGeometry width="80" height="80" as="geometry" />
        </mxCell>
        <mxCell id="VAxVF2x6nKeMdrS-wdlX-54" value="&lt;span style=&quot;font-weight: normal; font-size: 14px;&quot;&gt;Router&lt;/span&gt;" style="text;html=1;strokeColor=none;fillColor=none;align=center;verticalAlign=middle;whiteSpace=wrap;rounded=0;fontSize=14;fontStyle=1" vertex="1" parent="VAxVF2x6nKeMdrS-wdlX-55">
          <mxGeometry x="10" y="80" width="60" height="30" as="geometry" />
        </mxCell>
        <mxCell id="VAxVF2x6nKeMdrS-wdlX-57" value="&lt;span style=&quot;font-size: 13px;&quot;&gt;Old Campus&lt;/span&gt;" style="text;html=1;strokeColor=none;fillColor=none;align=center;verticalAlign=middle;whiteSpace=wrap;rounded=0;fontSize=13;fontStyle=1" vertex="1" parent="1">
          <mxGeometry x="120" y="650" width="100" height="30" as="geometry" />
        </mxCell>
        <mxCell id="VAxVF2x6nKeMdrS-wdlX-58" value="" style="image;html=1;image=img/lib/clip_art/computers/Printer_128x128.png" vertex="1" parent="1">
          <mxGeometry x="400" y="190" width="80" height="80" as="geometry" />
        </mxCell>
        <mxCell id="VAxVF2x6nKeMdrS-wdlX-59" style="edgeStyle=orthogonalEdgeStyle;rounded=0;orthogonalLoop=1;jettySize=auto;html=1;exitX=1;exitY=0.75;exitDx=0;exitDy=0;entryX=0;entryY=0.5;entryDx=0;entryDy=0;endArrow=none;endFill=0;" edge="1" parent="1" source="VAxVF2x6nKeMdrS-wdlX-53" target="VAxVF2x6nKeMdrS-wdlX-58">
          <mxGeometry relative="1" as="geometry" />
        </mxCell>
        <mxCell id="VAxVF2x6nKeMdrS-wdlX-60" value="&lt;span style=&quot;font-weight: 400;&quot;&gt;Printer&lt;/span&gt;" style="text;html=1;strokeColor=none;fillColor=none;align=center;verticalAlign=middle;whiteSpace=wrap;rounded=0;fontSize=14;fontStyle=1" vertex="1" parent="1">
          <mxGeometry x="410" y="263" width="60" height="30" as="geometry" />
        </mxCell>
        <mxCell id="VAxVF2x6nKeMdrS-wdlX-63" value="" style="group" vertex="1" connectable="0" parent="1">
          <mxGeometry x="406" y="307.94" width="70" height="109.11000000000001" as="geometry" />
        </mxCell>
        <mxCell id="VAxVF2x6nKeMdrS-wdlX-61" value="" style="image;points=[];aspect=fixed;html=1;align=center;shadow=0;dashed=0;image=img/lib/allied_telesis/computer_and_terminals/Personal_Computer.svg;" vertex="1" parent="VAxVF2x6nKeMdrS-wdlX-63">
          <mxGeometry x="2.6000000000000227" width="62.8" height="85.11" as="geometry" />
        </mxCell>
        <mxCell id="VAxVF2x6nKeMdrS-wdlX-62" value="&lt;span style=&quot;font-weight: 400;&quot;&gt;pc1&lt;/span&gt;" style="text;html=1;strokeColor=none;fillColor=none;align=center;verticalAlign=middle;whiteSpace=wrap;rounded=0;fontSize=14;fontStyle=1" vertex="1" parent="VAxVF2x6nKeMdrS-wdlX-63">
          <mxGeometry y="79.11000000000001" width="70" height="30" as="geometry" />
        </mxCell>
        <mxCell id="VAxVF2x6nKeMdrS-wdlX-64" value="" style="group" vertex="1" connectable="0" parent="1">
          <mxGeometry x="405" y="425.44" width="70" height="109.11000000000001" as="geometry" />
        </mxCell>
        <mxCell id="VAxVF2x6nKeMdrS-wdlX-65" value="" style="image;points=[];aspect=fixed;html=1;align=center;shadow=0;dashed=0;image=img/lib/allied_telesis/computer_and_terminals/Personal_Computer.svg;" vertex="1" parent="VAxVF2x6nKeMdrS-wdlX-64">
          <mxGeometry x="2.6000000000000227" width="62.8" height="85.11" as="geometry" />
        </mxCell>
        <mxCell id="VAxVF2x6nKeMdrS-wdlX-66" value="&lt;span style=&quot;font-weight: 400;&quot;&gt;pc2&lt;/span&gt;" style="text;html=1;strokeColor=none;fillColor=none;align=center;verticalAlign=middle;whiteSpace=wrap;rounded=0;fontSize=14;fontStyle=1" vertex="1" parent="VAxVF2x6nKeMdrS-wdlX-64">
          <mxGeometry y="79.11000000000001" width="70" height="30" as="geometry" />
        </mxCell>
        <mxCell id="VAxVF2x6nKeMdrS-wdlX-67" value="" style="group" vertex="1" connectable="0" parent="1">
          <mxGeometry x="290" y="425.44" width="70" height="109.11000000000001" as="geometry" />
        </mxCell>
        <mxCell id="VAxVF2x6nKeMdrS-wdlX-68" value="" style="image;points=[];aspect=fixed;html=1;align=center;shadow=0;dashed=0;image=img/lib/allied_telesis/computer_and_terminals/Personal_Computer.svg;" vertex="1" parent="VAxVF2x6nKeMdrS-wdlX-67">
          <mxGeometry x="2.6000000000000227" width="62.8" height="85.11" as="geometry" />
        </mxCell>
        <mxCell id="VAxVF2x6nKeMdrS-wdlX-69" value="&lt;span style=&quot;font-weight: 400;&quot;&gt;pcN&lt;/span&gt;" style="text;html=1;strokeColor=none;fillColor=none;align=center;verticalAlign=middle;whiteSpace=wrap;rounded=0;fontSize=14;fontStyle=1" vertex="1" parent="VAxVF2x6nKeMdrS-wdlX-67">
          <mxGeometry y="79.11000000000001" width="70" height="30" as="geometry" />
        </mxCell>
        <mxCell id="VAxVF2x6nKeMdrS-wdlX-76" style="edgeStyle=orthogonalEdgeStyle;rounded=0;orthogonalLoop=1;jettySize=auto;html=1;exitX=1;exitY=0.5;exitDx=0;exitDy=0;endArrow=none;endFill=0;" edge="1" parent="1" source="VAxVF2x6nKeMdrS-wdlX-70" target="VAxVF2x6nKeMdrS-wdlX-61">
          <mxGeometry relative="1" as="geometry" />
        </mxCell>
        <mxCell id="VAxVF2x6nKeMdrS-wdlX-83" style="rounded=0;orthogonalLoop=1;jettySize=auto;html=1;exitX=0;exitY=0.5;exitDx=0;exitDy=0;entryX=0.5;entryY=0.625;entryDx=0;entryDy=0;endArrow=none;endFill=0;entryPerimeter=0;" edge="1" parent="1" source="VAxVF2x6nKeMdrS-wdlX-70" target="VAxVF2x6nKeMdrS-wdlX-81">
          <mxGeometry relative="1" as="geometry" />
        </mxCell>
        <mxCell id="VAxVF2x6nKeMdrS-wdlX-70" value="" style="image;html=1;image=img/lib/clip_art/networking/Switch_128x128.png" vertex="1" parent="1">
          <mxGeometry x="250" y="310" width="80" height="80" as="geometry" />
        </mxCell>
        <mxCell id="VAxVF2x6nKeMdrS-wdlX-80" value="" style="group" vertex="1" connectable="0" parent="1">
          <mxGeometry x="140" y="399" width="110" height="110" as="geometry" />
        </mxCell>
        <mxCell id="VAxVF2x6nKeMdrS-wdlX-81" value="" style="image;html=1;image=img/lib/clip_art/networking/Wireless_Router_N_128x128.png" vertex="1" parent="VAxVF2x6nKeMdrS-wdlX-80">
          <mxGeometry width="80" height="80" as="geometry" />
        </mxCell>
        <mxCell id="VAxVF2x6nKeMdrS-wdlX-82" value="&lt;span style=&quot;font-weight: normal; font-size: 14px;&quot;&gt;Wireless Access Point&lt;/span&gt;" style="text;html=1;strokeColor=none;fillColor=none;align=center;verticalAlign=middle;whiteSpace=wrap;rounded=0;fontSize=14;fontStyle=1" vertex="1" parent="VAxVF2x6nKeMdrS-wdlX-80">
          <mxGeometry x="10" y="80" width="100" height="30" as="geometry" />
        </mxCell>
        <mxCell id="VAxVF2x6nKeMdrS-wdlX-86" value="" style="group" vertex="1" connectable="0" parent="1">
          <mxGeometry x="119" y="550" width="120" height="70" as="geometry" />
        </mxCell>
        <mxCell id="VAxVF2x6nKeMdrS-wdlX-84" value="" style="sketch=0;aspect=fixed;pointerEvents=1;shadow=0;dashed=0;html=1;strokeColor=none;labelPosition=center;verticalLabelPosition=bottom;verticalAlign=top;align=center;fillColor=#00188D;shape=mxgraph.azure.laptop" vertex="1" parent="VAxVF2x6nKeMdrS-wdlX-86">
          <mxGeometry x="27.670000000000016" width="66.66" height="40" as="geometry" />
        </mxCell>
        <mxCell id="VAxVF2x6nKeMdrS-wdlX-85" value="&lt;span style=&quot;font-weight: 400; font-size: 13px;&quot;&gt;Laptop&lt;/span&gt;" style="text;html=1;strokeColor=none;fillColor=none;align=center;verticalAlign=middle;whiteSpace=wrap;rounded=0;fontSize=13;fontStyle=1" vertex="1" parent="VAxVF2x6nKeMdrS-wdlX-86">
          <mxGeometry y="40" width="120" height="30" as="geometry" />
        </mxCell>
        <mxCell id="VAxVF2x6nKeMdrS-wdlX-87" value="" style="group" vertex="1" connectable="0" parent="1">
          <mxGeometry x="220" y="550" width="120" height="70" as="geometry" />
        </mxCell>
        <mxCell id="VAxVF2x6nKeMdrS-wdlX-88" value="" style="sketch=0;aspect=fixed;pointerEvents=1;shadow=0;dashed=0;html=1;strokeColor=none;labelPosition=center;verticalLabelPosition=bottom;verticalAlign=top;align=center;fillColor=#00188D;shape=mxgraph.azure.laptop" vertex="1" parent="VAxVF2x6nKeMdrS-wdlX-87">
          <mxGeometry x="27.670000000000016" width="66.66" height="40" as="geometry" />
        </mxCell>
        <mxCell id="VAxVF2x6nKeMdrS-wdlX-89" value="&lt;span style=&quot;font-weight: 400; font-size: 13px;&quot;&gt;Laptop&lt;/span&gt;" style="text;html=1;strokeColor=none;fillColor=none;align=center;verticalAlign=middle;whiteSpace=wrap;rounded=0;fontSize=13;fontStyle=1" vertex="1" parent="VAxVF2x6nKeMdrS-wdlX-87">
          <mxGeometry y="40" width="120" height="30" as="geometry" />
        </mxCell>
        <mxCell id="VAxVF2x6nKeMdrS-wdlX-90" style="rounded=0;orthogonalLoop=1;jettySize=auto;html=1;exitX=0.5;exitY=0;exitDx=0;exitDy=0;exitPerimeter=0;entryX=0.5;entryY=1;entryDx=0;entryDy=0;endArrow=none;endFill=0;" edge="1" parent="1" source="VAxVF2x6nKeMdrS-wdlX-88" target="VAxVF2x6nKeMdrS-wdlX-82">
          <mxGeometry relative="1" as="geometry" />
        </mxCell>
        <mxCell id="VAxVF2x6nKeMdrS-wdlX-91" style="rounded=0;orthogonalLoop=1;jettySize=auto;html=1;exitX=0.5;exitY=0;exitDx=0;exitDy=0;exitPerimeter=0;entryX=0.5;entryY=1;entryDx=0;entryDy=0;endArrow=none;endFill=0;" edge="1" parent="1" source="VAxVF2x6nKeMdrS-wdlX-84" target="VAxVF2x6nKeMdrS-wdlX-82">
          <mxGeometry relative="1" as="geometry" />
        </mxCell>
        <mxCell id="VAxVF2x6nKeMdrS-wdlX-120" value="" style="group" vertex="1" connectable="0" parent="1">
          <mxGeometry x="-360" y="560" width="270" height="380" as="geometry" />
        </mxCell>
        <mxCell id="VAxVF2x6nKeMdrS-wdlX-119" value="" style="endArrow=none;html=1;rounded=0;entryX=0.48;entryY=0.59;entryDx=0;entryDy=0;entryPerimeter=0;" edge="1" parent="VAxVF2x6nKeMdrS-wdlX-120">
          <mxGeometry width="50" height="50" relative="1" as="geometry">
            <mxPoint x="58" y="312" as="sourcePoint" />
            <mxPoint x="224" y="314" as="targetPoint" />
          </mxGeometry>
        </mxCell>
        <mxCell id="VAxVF2x6nKeMdrS-wdlX-92" value="" style="rounded=0;whiteSpace=wrap;html=1;fillColor=none;strokeColor=#330000;dashed=1;dashPattern=8 8;" vertex="1" parent="VAxVF2x6nKeMdrS-wdlX-120">
          <mxGeometry width="270" height="380" as="geometry" />
        </mxCell>
        <mxCell id="VAxVF2x6nKeMdrS-wdlX-118" value="" style="endArrow=none;html=1;rounded=0;entryX=0.48;entryY=0.59;entryDx=0;entryDy=0;entryPerimeter=0;" edge="1" parent="VAxVF2x6nKeMdrS-wdlX-120">
          <mxGeometry width="50" height="50" relative="1" as="geometry">
            <mxPoint x="61" y="211" as="sourcePoint" />
            <mxPoint x="227" y="213" as="targetPoint" />
          </mxGeometry>
        </mxCell>
        <mxCell id="VAxVF2x6nKeMdrS-wdlX-117" value="" style="endArrow=none;html=1;rounded=0;entryX=0.48;entryY=0.59;entryDx=0;entryDy=0;entryPerimeter=0;" edge="1" parent="VAxVF2x6nKeMdrS-wdlX-120" target="VAxVF2x6nKeMdrS-wdlX-97">
          <mxGeometry width="50" height="50" relative="1" as="geometry">
            <mxPoint x="64" y="118" as="sourcePoint" />
            <mxPoint x="114" y="68" as="targetPoint" />
          </mxGeometry>
        </mxCell>
        <mxCell id="VAxVF2x6nKeMdrS-wdlX-93" value="Com Lab 1" style="text;html=1;strokeColor=none;fillColor=none;align=center;verticalAlign=middle;whiteSpace=wrap;rounded=0;fontSize=13;fontStyle=1" vertex="1" parent="VAxVF2x6nKeMdrS-wdlX-120">
          <mxGeometry x="84" y="346" width="100" height="30" as="geometry" />
        </mxCell>
        <mxCell id="VAxVF2x6nKeMdrS-wdlX-114" style="rounded=0;orthogonalLoop=1;jettySize=auto;html=1;exitX=0.5;exitY=1;exitDx=0;exitDy=0;entryX=0.5;entryY=0;entryDx=0;entryDy=0;endArrow=none;endFill=0;" edge="1" parent="VAxVF2x6nKeMdrS-wdlX-120" source="VAxVF2x6nKeMdrS-wdlX-94" target="VAxVF2x6nKeMdrS-wdlX-93">
          <mxGeometry relative="1" as="geometry" />
        </mxCell>
        <mxCell id="VAxVF2x6nKeMdrS-wdlX-94" value="" style="image;html=1;image=img/lib/clip_art/networking/Switch_128x128.png" vertex="1" parent="VAxVF2x6nKeMdrS-wdlX-120">
          <mxGeometry x="95" y="10" width="80" height="80" as="geometry" />
        </mxCell>
        <mxCell id="VAxVF2x6nKeMdrS-wdlX-96" value="" style="group" vertex="1" connectable="0" parent="VAxVF2x6nKeMdrS-wdlX-120">
          <mxGeometry x="200" y="74" width="64.16" height="100" as="geometry" />
        </mxCell>
        <mxCell id="VAxVF2x6nKeMdrS-wdlX-97" value="" style="image;points=[];aspect=fixed;html=1;align=center;shadow=0;dashed=0;image=img/lib/allied_telesis/computer_and_terminals/Personal_Computer.svg;" vertex="1" parent="VAxVF2x6nKeMdrS-wdlX-96">
          <mxGeometry x="2.383085714285735" width="57.55659426267069" height="78.00384932636787" as="geometry" />
        </mxCell>
        <mxCell id="VAxVF2x6nKeMdrS-wdlX-98" value="&lt;span style=&quot;font-weight: 400;&quot;&gt;pc4&lt;/span&gt;" style="text;html=1;strokeColor=none;fillColor=none;align=center;verticalAlign=middle;whiteSpace=wrap;rounded=0;fontSize=14;fontStyle=1" vertex="1" parent="VAxVF2x6nKeMdrS-wdlX-96">
          <mxGeometry y="72.50481165795986" width="64.16" height="27.49518834204014" as="geometry" />
        </mxCell>
        <mxCell id="VAxVF2x6nKeMdrS-wdlX-99" value="" style="group" vertex="1" connectable="0" parent="VAxVF2x6nKeMdrS-wdlX-120">
          <mxGeometry x="200" y="174" width="64.16" height="100" as="geometry" />
        </mxCell>
        <mxCell id="VAxVF2x6nKeMdrS-wdlX-100" value="" style="image;points=[];aspect=fixed;html=1;align=center;shadow=0;dashed=0;image=img/lib/allied_telesis/computer_and_terminals/Personal_Computer.svg;" vertex="1" parent="VAxVF2x6nKeMdrS-wdlX-99">
          <mxGeometry x="2.383085714285735" width="57.55659426267069" height="78.00384932636787" as="geometry" />
        </mxCell>
        <mxCell id="VAxVF2x6nKeMdrS-wdlX-101" value="&lt;span style=&quot;font-weight: 400;&quot;&gt;pc5&lt;/span&gt;" style="text;html=1;strokeColor=none;fillColor=none;align=center;verticalAlign=middle;whiteSpace=wrap;rounded=0;fontSize=14;fontStyle=1" vertex="1" parent="VAxVF2x6nKeMdrS-wdlX-99">
          <mxGeometry y="72.50481165795986" width="64.16" height="27.49518834204014" as="geometry" />
        </mxCell>
        <mxCell id="VAxVF2x6nKeMdrS-wdlX-102" value="" style="group" vertex="1" connectable="0" parent="VAxVF2x6nKeMdrS-wdlX-120">
          <mxGeometry x="5.840000000000032" y="74" width="64.16" height="100" as="geometry" />
        </mxCell>
        <mxCell id="VAxVF2x6nKeMdrS-wdlX-103" value="" style="image;points=[];aspect=fixed;html=1;align=center;shadow=0;dashed=0;image=img/lib/allied_telesis/computer_and_terminals/Personal_Computer.svg;" vertex="1" parent="VAxVF2x6nKeMdrS-wdlX-102">
          <mxGeometry x="2.383085714285735" width="57.55659426267069" height="78.00384932636787" as="geometry" />
        </mxCell>
        <mxCell id="VAxVF2x6nKeMdrS-wdlX-104" value="&lt;span style=&quot;font-weight: 400;&quot;&gt;pc1&lt;/span&gt;" style="text;html=1;strokeColor=none;fillColor=none;align=center;verticalAlign=middle;whiteSpace=wrap;rounded=0;fontSize=14;fontStyle=1" vertex="1" parent="VAxVF2x6nKeMdrS-wdlX-102">
          <mxGeometry y="72.50481165795986" width="64.16" height="27.49518834204014" as="geometry" />
        </mxCell>
        <mxCell id="VAxVF2x6nKeMdrS-wdlX-105" value="" style="group" vertex="1" connectable="0" parent="VAxVF2x6nKeMdrS-wdlX-120">
          <mxGeometry x="5.840000000000032" y="174" width="64.16" height="100" as="geometry" />
        </mxCell>
        <mxCell id="VAxVF2x6nKeMdrS-wdlX-106" value="" style="image;points=[];aspect=fixed;html=1;align=center;shadow=0;dashed=0;image=img/lib/allied_telesis/computer_and_terminals/Personal_Computer.svg;" vertex="1" parent="VAxVF2x6nKeMdrS-wdlX-105">
          <mxGeometry x="2.383085714285735" width="57.55659426267069" height="78.00384932636787" as="geometry" />
        </mxCell>
        <mxCell id="VAxVF2x6nKeMdrS-wdlX-107" value="&lt;span style=&quot;font-weight: 400;&quot;&gt;pc2&lt;/span&gt;" style="text;html=1;strokeColor=none;fillColor=none;align=center;verticalAlign=middle;whiteSpace=wrap;rounded=0;fontSize=14;fontStyle=1" vertex="1" parent="VAxVF2x6nKeMdrS-wdlX-105">
          <mxGeometry y="72.50481165795986" width="64.16" height="27.49518834204014" as="geometry" />
        </mxCell>
        <mxCell id="VAxVF2x6nKeMdrS-wdlX-108" value="" style="group" vertex="1" connectable="0" parent="VAxVF2x6nKeMdrS-wdlX-120">
          <mxGeometry x="5.840000000000032" y="273" width="64.16" height="100" as="geometry" />
        </mxCell>
        <mxCell id="VAxVF2x6nKeMdrS-wdlX-109" value="" style="image;points=[];aspect=fixed;html=1;align=center;shadow=0;dashed=0;image=img/lib/allied_telesis/computer_and_terminals/Personal_Computer.svg;" vertex="1" parent="VAxVF2x6nKeMdrS-wdlX-108">
          <mxGeometry x="2.383085714285735" width="57.55659426267069" height="78.00384932636787" as="geometry" />
        </mxCell>
        <mxCell id="VAxVF2x6nKeMdrS-wdlX-110" value="&lt;span style=&quot;font-weight: 400;&quot;&gt;pc3&lt;/span&gt;" style="text;html=1;strokeColor=none;fillColor=none;align=center;verticalAlign=middle;whiteSpace=wrap;rounded=0;fontSize=14;fontStyle=1" vertex="1" parent="VAxVF2x6nKeMdrS-wdlX-108">
          <mxGeometry y="72.50481165795986" width="64.16" height="27.49518834204014" as="geometry" />
        </mxCell>
        <mxCell id="VAxVF2x6nKeMdrS-wdlX-111" value="" style="group" vertex="1" connectable="0" parent="VAxVF2x6nKeMdrS-wdlX-120">
          <mxGeometry x="200.00000000000003" y="273" width="64.16" height="100" as="geometry" />
        </mxCell>
        <mxCell id="VAxVF2x6nKeMdrS-wdlX-112" value="" style="image;points=[];aspect=fixed;html=1;align=center;shadow=0;dashed=0;image=img/lib/allied_telesis/computer_and_terminals/Personal_Computer.svg;" vertex="1" parent="VAxVF2x6nKeMdrS-wdlX-111">
          <mxGeometry x="2.383085714285735" width="57.55659426267069" height="78.00384932636787" as="geometry" />
        </mxCell>
        <mxCell id="VAxVF2x6nKeMdrS-wdlX-113" value="&lt;span style=&quot;font-weight: 400;&quot;&gt;pc6&lt;/span&gt;" style="text;html=1;strokeColor=none;fillColor=none;align=center;verticalAlign=middle;whiteSpace=wrap;rounded=0;fontSize=14;fontStyle=1" vertex="1" parent="VAxVF2x6nKeMdrS-wdlX-111">
          <mxGeometry y="72.50481165795986" width="64.16" height="27.49518834204014" as="geometry" />
        </mxCell>
        <mxCell id="VAxVF2x6nKeMdrS-wdlX-150" value="&lt;span style=&quot;font-weight: 400; font-size: 13px;&quot;&gt;Switch&lt;/span&gt;" style="text;html=1;strokeColor=none;fillColor=none;align=center;verticalAlign=middle;whiteSpace=wrap;rounded=0;fontSize=13;fontStyle=1" vertex="1" parent="VAxVF2x6nKeMdrS-wdlX-120">
          <mxGeometry x="95" y="60" width="100" height="30" as="geometry" />
        </mxCell>
        <mxCell id="VAxVF2x6nKeMdrS-wdlX-121" value="" style="group" vertex="1" connectable="0" parent="1">
          <mxGeometry x="-646" y="560" width="270" height="380" as="geometry" />
        </mxCell>
        <mxCell id="VAxVF2x6nKeMdrS-wdlX-122" value="" style="endArrow=none;html=1;rounded=0;entryX=0.48;entryY=0.59;entryDx=0;entryDy=0;entryPerimeter=0;" edge="1" parent="VAxVF2x6nKeMdrS-wdlX-121">
          <mxGeometry width="50" height="50" relative="1" as="geometry">
            <mxPoint x="58" y="312" as="sourcePoint" />
            <mxPoint x="224" y="314" as="targetPoint" />
          </mxGeometry>
        </mxCell>
        <mxCell id="VAxVF2x6nKeMdrS-wdlX-123" value="" style="rounded=0;whiteSpace=wrap;html=1;fillColor=none;strokeColor=#330000;dashed=1;dashPattern=8 8;" vertex="1" parent="VAxVF2x6nKeMdrS-wdlX-121">
          <mxGeometry width="270" height="380" as="geometry" />
        </mxCell>
        <mxCell id="VAxVF2x6nKeMdrS-wdlX-124" value="" style="endArrow=none;html=1;rounded=0;entryX=0.48;entryY=0.59;entryDx=0;entryDy=0;entryPerimeter=0;" edge="1" parent="VAxVF2x6nKeMdrS-wdlX-121">
          <mxGeometry width="50" height="50" relative="1" as="geometry">
            <mxPoint x="61" y="211" as="sourcePoint" />
            <mxPoint x="227" y="213" as="targetPoint" />
          </mxGeometry>
        </mxCell>
        <mxCell id="VAxVF2x6nKeMdrS-wdlX-125" value="" style="endArrow=none;html=1;rounded=0;entryX=0.48;entryY=0.59;entryDx=0;entryDy=0;entryPerimeter=0;" edge="1" parent="VAxVF2x6nKeMdrS-wdlX-121" target="VAxVF2x6nKeMdrS-wdlX-130">
          <mxGeometry width="50" height="50" relative="1" as="geometry">
            <mxPoint x="64" y="118" as="sourcePoint" />
            <mxPoint x="114" y="68" as="targetPoint" />
          </mxGeometry>
        </mxCell>
        <mxCell id="VAxVF2x6nKeMdrS-wdlX-126" value="Com Lab 2" style="text;html=1;strokeColor=none;fillColor=none;align=center;verticalAlign=middle;whiteSpace=wrap;rounded=0;fontSize=13;fontStyle=1" vertex="1" parent="VAxVF2x6nKeMdrS-wdlX-121">
          <mxGeometry x="84" y="346" width="100" height="30" as="geometry" />
        </mxCell>
        <mxCell id="VAxVF2x6nKeMdrS-wdlX-127" style="rounded=0;orthogonalLoop=1;jettySize=auto;html=1;exitX=0.5;exitY=1;exitDx=0;exitDy=0;entryX=0.5;entryY=0;entryDx=0;entryDy=0;endArrow=none;endFill=0;" edge="1" parent="VAxVF2x6nKeMdrS-wdlX-121" source="VAxVF2x6nKeMdrS-wdlX-128" target="VAxVF2x6nKeMdrS-wdlX-126">
          <mxGeometry relative="1" as="geometry" />
        </mxCell>
        <mxCell id="VAxVF2x6nKeMdrS-wdlX-128" value="" style="image;html=1;image=img/lib/clip_art/networking/Switch_128x128.png" vertex="1" parent="VAxVF2x6nKeMdrS-wdlX-121">
          <mxGeometry x="95" y="10" width="80" height="80" as="geometry" />
        </mxCell>
        <mxCell id="VAxVF2x6nKeMdrS-wdlX-129" value="" style="group" vertex="1" connectable="0" parent="VAxVF2x6nKeMdrS-wdlX-121">
          <mxGeometry x="200" y="74" width="64.16" height="100" as="geometry" />
        </mxCell>
        <mxCell id="VAxVF2x6nKeMdrS-wdlX-130" value="" style="image;points=[];aspect=fixed;html=1;align=center;shadow=0;dashed=0;image=img/lib/allied_telesis/computer_and_terminals/Personal_Computer.svg;" vertex="1" parent="VAxVF2x6nKeMdrS-wdlX-129">
          <mxGeometry x="2.383085714285735" width="57.55659426267069" height="78.00384932636787" as="geometry" />
        </mxCell>
        <mxCell id="VAxVF2x6nKeMdrS-wdlX-131" value="&lt;span style=&quot;font-weight: 400;&quot;&gt;pc4&lt;/span&gt;" style="text;html=1;strokeColor=none;fillColor=none;align=center;verticalAlign=middle;whiteSpace=wrap;rounded=0;fontSize=14;fontStyle=1" vertex="1" parent="VAxVF2x6nKeMdrS-wdlX-129">
          <mxGeometry y="72.50481165795986" width="64.16" height="27.49518834204014" as="geometry" />
        </mxCell>
        <mxCell id="VAxVF2x6nKeMdrS-wdlX-132" value="" style="group" vertex="1" connectable="0" parent="VAxVF2x6nKeMdrS-wdlX-121">
          <mxGeometry x="200" y="174" width="64.16" height="100" as="geometry" />
        </mxCell>
        <mxCell id="VAxVF2x6nKeMdrS-wdlX-133" value="" style="image;points=[];aspect=fixed;html=1;align=center;shadow=0;dashed=0;image=img/lib/allied_telesis/computer_and_terminals/Personal_Computer.svg;" vertex="1" parent="VAxVF2x6nKeMdrS-wdlX-132">
          <mxGeometry x="2.383085714285735" width="57.55659426267069" height="78.00384932636787" as="geometry" />
        </mxCell>
        <mxCell id="VAxVF2x6nKeMdrS-wdlX-134" value="&lt;span style=&quot;font-weight: 400;&quot;&gt;pc5&lt;/span&gt;" style="text;html=1;strokeColor=none;fillColor=none;align=center;verticalAlign=middle;whiteSpace=wrap;rounded=0;fontSize=14;fontStyle=1" vertex="1" parent="VAxVF2x6nKeMdrS-wdlX-132">
          <mxGeometry y="72.50481165795986" width="64.16" height="27.49518834204014" as="geometry" />
        </mxCell>
        <mxCell id="VAxVF2x6nKeMdrS-wdlX-135" value="" style="group" vertex="1" connectable="0" parent="VAxVF2x6nKeMdrS-wdlX-121">
          <mxGeometry x="5.840000000000032" y="74" width="64.16" height="100" as="geometry" />
        </mxCell>
        <mxCell id="VAxVF2x6nKeMdrS-wdlX-136" value="" style="image;points=[];aspect=fixed;html=1;align=center;shadow=0;dashed=0;image=img/lib/allied_telesis/computer_and_terminals/Personal_Computer.svg;" vertex="1" parent="VAxVF2x6nKeMdrS-wdlX-135">
          <mxGeometry x="2.383085714285735" width="57.55659426267069" height="78.00384932636787" as="geometry" />
        </mxCell>
        <mxCell id="VAxVF2x6nKeMdrS-wdlX-137" value="&lt;span style=&quot;font-weight: 400;&quot;&gt;pc1&lt;/span&gt;" style="text;html=1;strokeColor=none;fillColor=none;align=center;verticalAlign=middle;whiteSpace=wrap;rounded=0;fontSize=14;fontStyle=1" vertex="1" parent="VAxVF2x6nKeMdrS-wdlX-135">
          <mxGeometry y="72.50481165795986" width="64.16" height="27.49518834204014" as="geometry" />
        </mxCell>
        <mxCell id="VAxVF2x6nKeMdrS-wdlX-138" value="" style="group" vertex="1" connectable="0" parent="VAxVF2x6nKeMdrS-wdlX-121">
          <mxGeometry x="5.840000000000032" y="174" width="64.16" height="100" as="geometry" />
        </mxCell>
        <mxCell id="VAxVF2x6nKeMdrS-wdlX-139" value="" style="image;points=[];aspect=fixed;html=1;align=center;shadow=0;dashed=0;image=img/lib/allied_telesis/computer_and_terminals/Personal_Computer.svg;" vertex="1" parent="VAxVF2x6nKeMdrS-wdlX-138">
          <mxGeometry x="2.383085714285735" width="57.55659426267069" height="78.00384932636787" as="geometry" />
        </mxCell>
        <mxCell id="VAxVF2x6nKeMdrS-wdlX-140" value="&lt;span style=&quot;font-weight: 400;&quot;&gt;pc2&lt;/span&gt;" style="text;html=1;strokeColor=none;fillColor=none;align=center;verticalAlign=middle;whiteSpace=wrap;rounded=0;fontSize=14;fontStyle=1" vertex="1" parent="VAxVF2x6nKeMdrS-wdlX-138">
          <mxGeometry y="72.50481165795986" width="64.16" height="27.49518834204014" as="geometry" />
        </mxCell>
        <mxCell id="VAxVF2x6nKeMdrS-wdlX-141" value="" style="group" vertex="1" connectable="0" parent="VAxVF2x6nKeMdrS-wdlX-121">
          <mxGeometry x="5.840000000000032" y="273" width="64.16" height="100" as="geometry" />
        </mxCell>
        <mxCell id="VAxVF2x6nKeMdrS-wdlX-142" value="" style="image;points=[];aspect=fixed;html=1;align=center;shadow=0;dashed=0;image=img/lib/allied_telesis/computer_and_terminals/Personal_Computer.svg;" vertex="1" parent="VAxVF2x6nKeMdrS-wdlX-141">
          <mxGeometry x="2.383085714285735" width="57.55659426267069" height="78.00384932636787" as="geometry" />
        </mxCell>
        <mxCell id="VAxVF2x6nKeMdrS-wdlX-143" value="&lt;span style=&quot;font-weight: 400;&quot;&gt;pc3&lt;/span&gt;" style="text;html=1;strokeColor=none;fillColor=none;align=center;verticalAlign=middle;whiteSpace=wrap;rounded=0;fontSize=14;fontStyle=1" vertex="1" parent="VAxVF2x6nKeMdrS-wdlX-141">
          <mxGeometry y="72.50481165795986" width="64.16" height="27.49518834204014" as="geometry" />
        </mxCell>
        <mxCell id="VAxVF2x6nKeMdrS-wdlX-144" value="" style="group" vertex="1" connectable="0" parent="VAxVF2x6nKeMdrS-wdlX-121">
          <mxGeometry x="200.00000000000003" y="273" width="64.16" height="100" as="geometry" />
        </mxCell>
        <mxCell id="VAxVF2x6nKeMdrS-wdlX-145" value="" style="image;points=[];aspect=fixed;html=1;align=center;shadow=0;dashed=0;image=img/lib/allied_telesis/computer_and_terminals/Personal_Computer.svg;" vertex="1" parent="VAxVF2x6nKeMdrS-wdlX-144">
          <mxGeometry x="2.383085714285735" width="57.55659426267069" height="78.00384932636787" as="geometry" />
        </mxCell>
        <mxCell id="VAxVF2x6nKeMdrS-wdlX-146" value="&lt;span style=&quot;font-weight: 400;&quot;&gt;pc6&lt;/span&gt;" style="text;html=1;strokeColor=none;fillColor=none;align=center;verticalAlign=middle;whiteSpace=wrap;rounded=0;fontSize=14;fontStyle=1" vertex="1" parent="VAxVF2x6nKeMdrS-wdlX-144">
          <mxGeometry y="72.50481165795986" width="64.16" height="27.49518834204014" as="geometry" />
        </mxCell>
        <mxCell id="VAxVF2x6nKeMdrS-wdlX-151" value="&lt;span style=&quot;font-weight: 400; font-size: 13px;&quot;&gt;Switch&lt;/span&gt;" style="text;html=1;strokeColor=none;fillColor=none;align=center;verticalAlign=middle;whiteSpace=wrap;rounded=0;fontSize=13;fontStyle=1" vertex="1" parent="VAxVF2x6nKeMdrS-wdlX-121">
          <mxGeometry x="100" y="60" width="100" height="30" as="geometry" />
        </mxCell>
        <mxCell id="VAxVF2x6nKeMdrS-wdlX-148" value="&lt;span style=&quot;font-weight: 400; font-size: 13px;&quot;&gt;Switch&lt;/span&gt;" style="text;html=1;strokeColor=none;fillColor=none;align=center;verticalAlign=middle;whiteSpace=wrap;rounded=0;fontSize=13;fontStyle=1" vertex="1" parent="1">
          <mxGeometry x="200" y="307.94" width="100" height="30" as="geometry" />
        </mxCell>
        <mxCell id="VAxVF2x6nKeMdrS-wdlX-153" value="" style="group" vertex="1" connectable="0" parent="1">
          <mxGeometry x="-930" y="560" width="270" height="380" as="geometry" />
        </mxCell>
        <mxCell id="VAxVF2x6nKeMdrS-wdlX-154" value="" style="endArrow=none;html=1;rounded=0;entryX=0.48;entryY=0.59;entryDx=0;entryDy=0;entryPerimeter=0;" edge="1" parent="VAxVF2x6nKeMdrS-wdlX-153">
          <mxGeometry width="50" height="50" relative="1" as="geometry">
            <mxPoint x="58" y="312" as="sourcePoint" />
            <mxPoint x="224" y="314" as="targetPoint" />
          </mxGeometry>
        </mxCell>
        <mxCell id="VAxVF2x6nKeMdrS-wdlX-155" value="" style="rounded=0;whiteSpace=wrap;html=1;fillColor=none;strokeColor=#330000;dashed=1;dashPattern=8 8;" vertex="1" parent="VAxVF2x6nKeMdrS-wdlX-153">
          <mxGeometry width="270" height="380" as="geometry" />
        </mxCell>
        <mxCell id="VAxVF2x6nKeMdrS-wdlX-156" value="" style="endArrow=none;html=1;rounded=0;entryX=0.48;entryY=0.59;entryDx=0;entryDy=0;entryPerimeter=0;" edge="1" parent="VAxVF2x6nKeMdrS-wdlX-153">
          <mxGeometry width="50" height="50" relative="1" as="geometry">
            <mxPoint x="61" y="211" as="sourcePoint" />
            <mxPoint x="227" y="213" as="targetPoint" />
          </mxGeometry>
        </mxCell>
        <mxCell id="VAxVF2x6nKeMdrS-wdlX-157" value="" style="endArrow=none;html=1;rounded=0;entryX=0.48;entryY=0.59;entryDx=0;entryDy=0;entryPerimeter=0;" edge="1" parent="VAxVF2x6nKeMdrS-wdlX-153" target="VAxVF2x6nKeMdrS-wdlX-162">
          <mxGeometry width="50" height="50" relative="1" as="geometry">
            <mxPoint x="64" y="118" as="sourcePoint" />
            <mxPoint x="114" y="68" as="targetPoint" />
          </mxGeometry>
        </mxCell>
        <mxCell id="VAxVF2x6nKeMdrS-wdlX-158" value="Library" style="text;html=1;strokeColor=none;fillColor=none;align=center;verticalAlign=middle;whiteSpace=wrap;rounded=0;fontSize=13;fontStyle=1" vertex="1" parent="VAxVF2x6nKeMdrS-wdlX-153">
          <mxGeometry x="84" y="346" width="100" height="30" as="geometry" />
        </mxCell>
        <mxCell id="VAxVF2x6nKeMdrS-wdlX-159" style="rounded=0;orthogonalLoop=1;jettySize=auto;html=1;exitX=0.5;exitY=1;exitDx=0;exitDy=0;entryX=0.5;entryY=0;entryDx=0;entryDy=0;endArrow=none;endFill=0;" edge="1" parent="VAxVF2x6nKeMdrS-wdlX-153" source="VAxVF2x6nKeMdrS-wdlX-160" target="VAxVF2x6nKeMdrS-wdlX-158">
          <mxGeometry relative="1" as="geometry" />
        </mxCell>
        <mxCell id="VAxVF2x6nKeMdrS-wdlX-160" value="" style="image;html=1;image=img/lib/clip_art/networking/Switch_128x128.png" vertex="1" parent="VAxVF2x6nKeMdrS-wdlX-153">
          <mxGeometry x="95" y="10" width="80" height="80" as="geometry" />
        </mxCell>
        <mxCell id="VAxVF2x6nKeMdrS-wdlX-161" value="" style="group" vertex="1" connectable="0" parent="VAxVF2x6nKeMdrS-wdlX-153">
          <mxGeometry x="200" y="74" width="64.16" height="100" as="geometry" />
        </mxCell>
        <mxCell id="VAxVF2x6nKeMdrS-wdlX-162" value="" style="image;points=[];aspect=fixed;html=1;align=center;shadow=0;dashed=0;image=img/lib/allied_telesis/computer_and_terminals/Personal_Computer.svg;" vertex="1" parent="VAxVF2x6nKeMdrS-wdlX-161">
          <mxGeometry x="2.383085714285735" width="57.55659426267069" height="78.00384932636787" as="geometry" />
        </mxCell>
        <mxCell id="VAxVF2x6nKeMdrS-wdlX-163" value="&lt;span style=&quot;font-weight: 400;&quot;&gt;pc4&lt;/span&gt;" style="text;html=1;strokeColor=none;fillColor=none;align=center;verticalAlign=middle;whiteSpace=wrap;rounded=0;fontSize=14;fontStyle=1" vertex="1" parent="VAxVF2x6nKeMdrS-wdlX-161">
          <mxGeometry y="72.50481165795986" width="64.16" height="27.49518834204014" as="geometry" />
        </mxCell>
        <mxCell id="VAxVF2x6nKeMdrS-wdlX-164" value="" style="group" vertex="1" connectable="0" parent="VAxVF2x6nKeMdrS-wdlX-153">
          <mxGeometry x="200" y="174" width="64.16" height="100" as="geometry" />
        </mxCell>
        <mxCell id="VAxVF2x6nKeMdrS-wdlX-165" value="" style="image;points=[];aspect=fixed;html=1;align=center;shadow=0;dashed=0;image=img/lib/allied_telesis/computer_and_terminals/Personal_Computer.svg;" vertex="1" parent="VAxVF2x6nKeMdrS-wdlX-164">
          <mxGeometry x="2.383085714285735" width="57.55659426267069" height="78.00384932636787" as="geometry" />
        </mxCell>
        <mxCell id="VAxVF2x6nKeMdrS-wdlX-166" value="&lt;span style=&quot;font-weight: 400;&quot;&gt;pc5&lt;/span&gt;" style="text;html=1;strokeColor=none;fillColor=none;align=center;verticalAlign=middle;whiteSpace=wrap;rounded=0;fontSize=14;fontStyle=1" vertex="1" parent="VAxVF2x6nKeMdrS-wdlX-164">
          <mxGeometry y="72.50481165795986" width="64.16" height="27.49518834204014" as="geometry" />
        </mxCell>
        <mxCell id="VAxVF2x6nKeMdrS-wdlX-167" value="" style="group" vertex="1" connectable="0" parent="VAxVF2x6nKeMdrS-wdlX-153">
          <mxGeometry x="5.840000000000032" y="74" width="64.16" height="100" as="geometry" />
        </mxCell>
        <mxCell id="VAxVF2x6nKeMdrS-wdlX-168" value="" style="image;points=[];aspect=fixed;html=1;align=center;shadow=0;dashed=0;image=img/lib/allied_telesis/computer_and_terminals/Personal_Computer.svg;" vertex="1" parent="VAxVF2x6nKeMdrS-wdlX-167">
          <mxGeometry x="2.383085714285735" width="57.55659426267069" height="78.00384932636787" as="geometry" />
        </mxCell>
        <mxCell id="VAxVF2x6nKeMdrS-wdlX-169" value="&lt;span style=&quot;font-weight: 400;&quot;&gt;pc1&lt;/span&gt;" style="text;html=1;strokeColor=none;fillColor=none;align=center;verticalAlign=middle;whiteSpace=wrap;rounded=0;fontSize=14;fontStyle=1" vertex="1" parent="VAxVF2x6nKeMdrS-wdlX-167">
          <mxGeometry y="72.50481165795986" width="64.16" height="27.49518834204014" as="geometry" />
        </mxCell>
        <mxCell id="VAxVF2x6nKeMdrS-wdlX-170" value="" style="group" vertex="1" connectable="0" parent="VAxVF2x6nKeMdrS-wdlX-153">
          <mxGeometry x="5.840000000000032" y="174" width="64.16" height="100" as="geometry" />
        </mxCell>
        <mxCell id="VAxVF2x6nKeMdrS-wdlX-171" value="" style="image;points=[];aspect=fixed;html=1;align=center;shadow=0;dashed=0;image=img/lib/allied_telesis/computer_and_terminals/Personal_Computer.svg;" vertex="1" parent="VAxVF2x6nKeMdrS-wdlX-170">
          <mxGeometry x="2.383085714285735" width="57.55659426267069" height="78.00384932636787" as="geometry" />
        </mxCell>
        <mxCell id="VAxVF2x6nKeMdrS-wdlX-172" value="&lt;span style=&quot;font-weight: 400;&quot;&gt;pc2&lt;/span&gt;" style="text;html=1;strokeColor=none;fillColor=none;align=center;verticalAlign=middle;whiteSpace=wrap;rounded=0;fontSize=14;fontStyle=1" vertex="1" parent="VAxVF2x6nKeMdrS-wdlX-170">
          <mxGeometry y="72.50481165795986" width="64.16" height="27.49518834204014" as="geometry" />
        </mxCell>
        <mxCell id="VAxVF2x6nKeMdrS-wdlX-173" value="" style="group" vertex="1" connectable="0" parent="VAxVF2x6nKeMdrS-wdlX-153">
          <mxGeometry x="5.840000000000032" y="273" width="64.16" height="100" as="geometry" />
        </mxCell>
        <mxCell id="VAxVF2x6nKeMdrS-wdlX-174" value="" style="image;points=[];aspect=fixed;html=1;align=center;shadow=0;dashed=0;image=img/lib/allied_telesis/computer_and_terminals/Personal_Computer.svg;" vertex="1" parent="VAxVF2x6nKeMdrS-wdlX-173">
          <mxGeometry x="2.383085714285735" width="57.55659426267069" height="78.00384932636787" as="geometry" />
        </mxCell>
        <mxCell id="VAxVF2x6nKeMdrS-wdlX-175" value="&lt;span style=&quot;font-weight: 400;&quot;&gt;pc3&lt;/span&gt;" style="text;html=1;strokeColor=none;fillColor=none;align=center;verticalAlign=middle;whiteSpace=wrap;rounded=0;fontSize=14;fontStyle=1" vertex="1" parent="VAxVF2x6nKeMdrS-wdlX-173">
          <mxGeometry y="72.50481165795986" width="64.16" height="27.49518834204014" as="geometry" />
        </mxCell>
        <mxCell id="VAxVF2x6nKeMdrS-wdlX-176" value="" style="group" vertex="1" connectable="0" parent="VAxVF2x6nKeMdrS-wdlX-153">
          <mxGeometry x="200.00000000000003" y="273" width="64.16" height="100" as="geometry" />
        </mxCell>
        <mxCell id="VAxVF2x6nKeMdrS-wdlX-177" value="" style="image;points=[];aspect=fixed;html=1;align=center;shadow=0;dashed=0;image=img/lib/allied_telesis/computer_and_terminals/Personal_Computer.svg;" vertex="1" parent="VAxVF2x6nKeMdrS-wdlX-176">
          <mxGeometry x="2.383085714285735" width="57.55659426267069" height="78.00384932636787" as="geometry" />
        </mxCell>
        <mxCell id="VAxVF2x6nKeMdrS-wdlX-178" value="&lt;span style=&quot;font-weight: 400;&quot;&gt;pc6&lt;/span&gt;" style="text;html=1;strokeColor=none;fillColor=none;align=center;verticalAlign=middle;whiteSpace=wrap;rounded=0;fontSize=14;fontStyle=1" vertex="1" parent="VAxVF2x6nKeMdrS-wdlX-176">
          <mxGeometry y="72.50481165795986" width="64.16" height="27.49518834204014" as="geometry" />
        </mxCell>
        <mxCell id="VAxVF2x6nKeMdrS-wdlX-179" value="&lt;span style=&quot;font-weight: 400; font-size: 13px;&quot;&gt;Switch&lt;/span&gt;" style="text;html=1;strokeColor=none;fillColor=none;align=center;verticalAlign=middle;whiteSpace=wrap;rounded=0;fontSize=13;fontStyle=1" vertex="1" parent="VAxVF2x6nKeMdrS-wdlX-153">
          <mxGeometry x="100" y="60" width="100" height="30" as="geometry" />
        </mxCell>
        <mxCell id="VAxVF2x6nKeMdrS-wdlX-181" value="" style="group" vertex="1" connectable="0" parent="1">
          <mxGeometry x="-1214" y="560" width="270" height="380" as="geometry" />
        </mxCell>
        <mxCell id="VAxVF2x6nKeMdrS-wdlX-182" value="" style="endArrow=none;html=1;rounded=0;entryX=0.48;entryY=0.59;entryDx=0;entryDy=0;entryPerimeter=0;" edge="1" parent="VAxVF2x6nKeMdrS-wdlX-181">
          <mxGeometry width="50" height="50" relative="1" as="geometry">
            <mxPoint x="58" y="312" as="sourcePoint" />
            <mxPoint x="224" y="314" as="targetPoint" />
          </mxGeometry>
        </mxCell>
        <mxCell id="VAxVF2x6nKeMdrS-wdlX-183" value="" style="rounded=0;whiteSpace=wrap;html=1;fillColor=none;strokeColor=#330000;dashed=1;dashPattern=8 8;" vertex="1" parent="VAxVF2x6nKeMdrS-wdlX-181">
          <mxGeometry width="270" height="380" as="geometry" />
        </mxCell>
        <mxCell id="VAxVF2x6nKeMdrS-wdlX-184" value="" style="endArrow=none;html=1;rounded=0;entryX=0.48;entryY=0.59;entryDx=0;entryDy=0;entryPerimeter=0;" edge="1" parent="VAxVF2x6nKeMdrS-wdlX-181">
          <mxGeometry width="50" height="50" relative="1" as="geometry">
            <mxPoint x="61" y="211" as="sourcePoint" />
            <mxPoint x="227" y="213" as="targetPoint" />
          </mxGeometry>
        </mxCell>
        <mxCell id="VAxVF2x6nKeMdrS-wdlX-185" value="" style="endArrow=none;html=1;rounded=0;entryX=0.48;entryY=0.59;entryDx=0;entryDy=0;entryPerimeter=0;" edge="1" parent="VAxVF2x6nKeMdrS-wdlX-181" target="VAxVF2x6nKeMdrS-wdlX-190">
          <mxGeometry width="50" height="50" relative="1" as="geometry">
            <mxPoint x="64" y="118" as="sourcePoint" />
            <mxPoint x="114" y="68" as="targetPoint" />
          </mxGeometry>
        </mxCell>
        <mxCell id="VAxVF2x6nKeMdrS-wdlX-186" value="Admin Office" style="text;html=1;strokeColor=none;fillColor=none;align=center;verticalAlign=middle;whiteSpace=wrap;rounded=0;fontSize=13;fontStyle=1" vertex="1" parent="VAxVF2x6nKeMdrS-wdlX-181">
          <mxGeometry x="84" y="346" width="100" height="30" as="geometry" />
        </mxCell>
        <mxCell id="VAxVF2x6nKeMdrS-wdlX-187" style="rounded=0;orthogonalLoop=1;jettySize=auto;html=1;exitX=0.5;exitY=1;exitDx=0;exitDy=0;entryX=0.5;entryY=0;entryDx=0;entryDy=0;endArrow=none;endFill=0;" edge="1" parent="VAxVF2x6nKeMdrS-wdlX-181" source="VAxVF2x6nKeMdrS-wdlX-188" target="VAxVF2x6nKeMdrS-wdlX-186">
          <mxGeometry relative="1" as="geometry" />
        </mxCell>
        <mxCell id="VAxVF2x6nKeMdrS-wdlX-188" value="" style="image;html=1;image=img/lib/clip_art/networking/Switch_128x128.png" vertex="1" parent="VAxVF2x6nKeMdrS-wdlX-181">
          <mxGeometry x="95" y="10" width="80" height="80" as="geometry" />
        </mxCell>
        <mxCell id="VAxVF2x6nKeMdrS-wdlX-189" value="" style="group" vertex="1" connectable="0" parent="VAxVF2x6nKeMdrS-wdlX-181">
          <mxGeometry x="200" y="74" width="64.16" height="100" as="geometry" />
        </mxCell>
        <mxCell id="VAxVF2x6nKeMdrS-wdlX-190" value="" style="image;points=[];aspect=fixed;html=1;align=center;shadow=0;dashed=0;image=img/lib/allied_telesis/computer_and_terminals/Personal_Computer.svg;" vertex="1" parent="VAxVF2x6nKeMdrS-wdlX-189">
          <mxGeometry x="2.383085714285735" width="57.55659426267069" height="78.00384932636787" as="geometry" />
        </mxCell>
        <mxCell id="VAxVF2x6nKeMdrS-wdlX-191" value="&lt;span style=&quot;font-weight: 400;&quot;&gt;pc4&lt;/span&gt;" style="text;html=1;strokeColor=none;fillColor=none;align=center;verticalAlign=middle;whiteSpace=wrap;rounded=0;fontSize=14;fontStyle=1" vertex="1" parent="VAxVF2x6nKeMdrS-wdlX-189">
          <mxGeometry y="72.50481165795986" width="64.16" height="27.49518834204014" as="geometry" />
        </mxCell>
        <mxCell id="VAxVF2x6nKeMdrS-wdlX-192" value="" style="group" vertex="1" connectable="0" parent="VAxVF2x6nKeMdrS-wdlX-181">
          <mxGeometry x="200" y="174" width="64.16" height="100" as="geometry" />
        </mxCell>
        <mxCell id="VAxVF2x6nKeMdrS-wdlX-193" value="" style="image;points=[];aspect=fixed;html=1;align=center;shadow=0;dashed=0;image=img/lib/allied_telesis/computer_and_terminals/Personal_Computer.svg;" vertex="1" parent="VAxVF2x6nKeMdrS-wdlX-192">
          <mxGeometry x="2.383085714285735" width="57.55659426267069" height="78.00384932636787" as="geometry" />
        </mxCell>
        <mxCell id="VAxVF2x6nKeMdrS-wdlX-194" value="&lt;span style=&quot;font-weight: 400;&quot;&gt;pc5&lt;/span&gt;" style="text;html=1;strokeColor=none;fillColor=none;align=center;verticalAlign=middle;whiteSpace=wrap;rounded=0;fontSize=14;fontStyle=1" vertex="1" parent="VAxVF2x6nKeMdrS-wdlX-192">
          <mxGeometry y="72.50481165795986" width="64.16" height="27.49518834204014" as="geometry" />
        </mxCell>
        <mxCell id="VAxVF2x6nKeMdrS-wdlX-195" value="" style="group" vertex="1" connectable="0" parent="VAxVF2x6nKeMdrS-wdlX-181">
          <mxGeometry x="5.840000000000032" y="74" width="64.16" height="100" as="geometry" />
        </mxCell>
        <mxCell id="VAxVF2x6nKeMdrS-wdlX-196" value="" style="image;points=[];aspect=fixed;html=1;align=center;shadow=0;dashed=0;image=img/lib/allied_telesis/computer_and_terminals/Personal_Computer.svg;" vertex="1" parent="VAxVF2x6nKeMdrS-wdlX-195">
          <mxGeometry x="2.383085714285735" width="57.55659426267069" height="78.00384932636787" as="geometry" />
        </mxCell>
        <mxCell id="VAxVF2x6nKeMdrS-wdlX-197" value="&lt;span style=&quot;font-weight: 400;&quot;&gt;pc1&lt;/span&gt;" style="text;html=1;strokeColor=none;fillColor=none;align=center;verticalAlign=middle;whiteSpace=wrap;rounded=0;fontSize=14;fontStyle=1" vertex="1" parent="VAxVF2x6nKeMdrS-wdlX-195">
          <mxGeometry y="72.50481165795986" width="64.16" height="27.49518834204014" as="geometry" />
        </mxCell>
        <mxCell id="VAxVF2x6nKeMdrS-wdlX-198" value="" style="group" vertex="1" connectable="0" parent="VAxVF2x6nKeMdrS-wdlX-181">
          <mxGeometry x="5.840000000000032" y="174" width="64.16" height="100" as="geometry" />
        </mxCell>
        <mxCell id="VAxVF2x6nKeMdrS-wdlX-199" value="" style="image;points=[];aspect=fixed;html=1;align=center;shadow=0;dashed=0;image=img/lib/allied_telesis/computer_and_terminals/Personal_Computer.svg;" vertex="1" parent="VAxVF2x6nKeMdrS-wdlX-198">
          <mxGeometry x="2.383085714285735" width="57.55659426267069" height="78.00384932636787" as="geometry" />
        </mxCell>
        <mxCell id="VAxVF2x6nKeMdrS-wdlX-200" value="&lt;span style=&quot;font-weight: 400;&quot;&gt;pc2&lt;/span&gt;" style="text;html=1;strokeColor=none;fillColor=none;align=center;verticalAlign=middle;whiteSpace=wrap;rounded=0;fontSize=14;fontStyle=1" vertex="1" parent="VAxVF2x6nKeMdrS-wdlX-198">
          <mxGeometry y="72.50481165795986" width="64.16" height="27.49518834204014" as="geometry" />
        </mxCell>
        <mxCell id="VAxVF2x6nKeMdrS-wdlX-201" value="" style="group" vertex="1" connectable="0" parent="VAxVF2x6nKeMdrS-wdlX-181">
          <mxGeometry x="5.840000000000032" y="273" width="64.16" height="100" as="geometry" />
        </mxCell>
        <mxCell id="VAxVF2x6nKeMdrS-wdlX-202" value="" style="image;points=[];aspect=fixed;html=1;align=center;shadow=0;dashed=0;image=img/lib/allied_telesis/computer_and_terminals/Personal_Computer.svg;" vertex="1" parent="VAxVF2x6nKeMdrS-wdlX-201">
          <mxGeometry x="2.383085714285735" width="57.55659426267069" height="78.00384932636787" as="geometry" />
        </mxCell>
        <mxCell id="VAxVF2x6nKeMdrS-wdlX-203" value="&lt;span style=&quot;font-weight: 400;&quot;&gt;pc3&lt;/span&gt;" style="text;html=1;strokeColor=none;fillColor=none;align=center;verticalAlign=middle;whiteSpace=wrap;rounded=0;fontSize=14;fontStyle=1" vertex="1" parent="VAxVF2x6nKeMdrS-wdlX-201">
          <mxGeometry y="72.50481165795986" width="64.16" height="27.49518834204014" as="geometry" />
        </mxCell>
        <mxCell id="VAxVF2x6nKeMdrS-wdlX-204" value="" style="group" vertex="1" connectable="0" parent="VAxVF2x6nKeMdrS-wdlX-181">
          <mxGeometry x="200.00000000000003" y="273" width="64.16" height="100" as="geometry" />
        </mxCell>
        <mxCell id="VAxVF2x6nKeMdrS-wdlX-205" value="" style="image;points=[];aspect=fixed;html=1;align=center;shadow=0;dashed=0;image=img/lib/allied_telesis/computer_and_terminals/Personal_Computer.svg;" vertex="1" parent="VAxVF2x6nKeMdrS-wdlX-204">
          <mxGeometry x="2.383085714285735" width="57.55659426267069" height="78.00384932636787" as="geometry" />
        </mxCell>
        <mxCell id="VAxVF2x6nKeMdrS-wdlX-206" value="&lt;span style=&quot;font-weight: 400;&quot;&gt;pc6&lt;/span&gt;" style="text;html=1;strokeColor=none;fillColor=none;align=center;verticalAlign=middle;whiteSpace=wrap;rounded=0;fontSize=14;fontStyle=1" vertex="1" parent="VAxVF2x6nKeMdrS-wdlX-204">
          <mxGeometry y="72.50481165795986" width="64.16" height="27.49518834204014" as="geometry" />
        </mxCell>
        <mxCell id="VAxVF2x6nKeMdrS-wdlX-207" value="&lt;span style=&quot;font-weight: 400; font-size: 13px;&quot;&gt;Switch&lt;/span&gt;" style="text;html=1;strokeColor=none;fillColor=none;align=center;verticalAlign=middle;whiteSpace=wrap;rounded=0;fontSize=13;fontStyle=1" vertex="1" parent="VAxVF2x6nKeMdrS-wdlX-181">
          <mxGeometry x="100" y="60" width="100" height="30" as="geometry" />
        </mxCell>
        <mxCell id="VAxVF2x6nKeMdrS-wdlX-210" value="" style="image;html=1;image=img/lib/clip_art/networking/Switch_128x128.png" vertex="1" parent="1">
          <mxGeometry x="-723" y="307" width="80" height="80" as="geometry" />
        </mxCell>
        <mxCell id="VAxVF2x6nKeMdrS-wdlX-211" value="&lt;span style=&quot;font-weight: 400; font-size: 13px;&quot;&gt;Switch&lt;/span&gt;" style="text;html=1;strokeColor=none;fillColor=none;align=center;verticalAlign=middle;whiteSpace=wrap;rounded=0;fontSize=13;fontStyle=1" vertex="1" parent="1">
          <mxGeometry x="-733" y="363" width="100" height="30" as="geometry" />
        </mxCell>
        <mxCell id="VAxVF2x6nKeMdrS-wdlX-221" style="edgeStyle=orthogonalEdgeStyle;rounded=0;orthogonalLoop=1;jettySize=auto;html=1;exitX=1;exitY=0.5;exitDx=0;exitDy=0;endArrow=none;endFill=0;" edge="1" parent="1" source="VAxVF2x6nKeMdrS-wdlX-217" target="VAxVF2x6nKeMdrS-wdlX-210">
          <mxGeometry relative="1" as="geometry" />
        </mxCell>
        <mxCell id="VAxVF2x6nKeMdrS-wdlX-217" value="" style="image;html=1;image=img/lib/clip_art/networking/Wireless_Router_N_128x128.png" vertex="1" parent="1">
          <mxGeometry x="-960" y="250" width="80" height="80" as="geometry" />
        </mxCell>
        <mxCell id="VAxVF2x6nKeMdrS-wdlX-218" value="&lt;span style=&quot;font-weight: normal; font-size: 14px;&quot;&gt;Wireless Access Point&lt;/span&gt;" style="text;html=1;strokeColor=none;fillColor=none;align=center;verticalAlign=middle;whiteSpace=wrap;rounded=0;fontSize=14;fontStyle=1" vertex="1" parent="1">
          <mxGeometry x="-950" y="330" width="100" height="30" as="geometry" />
        </mxCell>
        <mxCell id="VAxVF2x6nKeMdrS-wdlX-222" value="" style="group" vertex="1" connectable="0" parent="1">
          <mxGeometry x="-1348" y="149" width="248" height="351" as="geometry" />
        </mxCell>
        <mxCell id="VAxVF2x6nKeMdrS-wdlX-223" value="" style="endArrow=none;html=1;rounded=0;entryX=0.48;entryY=0.59;entryDx=0;entryDy=0;entryPerimeter=0;" edge="1" parent="VAxVF2x6nKeMdrS-wdlX-222">
          <mxGeometry width="50" height="50" relative="1" as="geometry">
            <mxPoint x="53.27407407407407" y="288.1894736842105" as="sourcePoint" />
            <mxPoint x="205.74814814814815" y="290.03684210526313" as="targetPoint" />
          </mxGeometry>
        </mxCell>
        <mxCell id="VAxVF2x6nKeMdrS-wdlX-224" value="" style="rounded=0;whiteSpace=wrap;html=1;fillColor=none;strokeColor=#330000;dashed=1;dashPattern=8 8;" vertex="1" parent="VAxVF2x6nKeMdrS-wdlX-222">
          <mxGeometry y="5" width="248" height="351" as="geometry" />
        </mxCell>
        <mxCell id="VAxVF2x6nKeMdrS-wdlX-225" value="" style="endArrow=none;html=1;rounded=0;entryX=0.48;entryY=0.59;entryDx=0;entryDy=0;entryPerimeter=0;" edge="1" parent="VAxVF2x6nKeMdrS-wdlX-222">
          <mxGeometry width="50" height="50" relative="1" as="geometry">
            <mxPoint x="56.02962962962963" y="194.89736842105262" as="sourcePoint" />
            <mxPoint x="208.5037037037037" y="196.74473684210525" as="targetPoint" />
          </mxGeometry>
        </mxCell>
        <mxCell id="VAxVF2x6nKeMdrS-wdlX-226" value="" style="endArrow=none;html=1;rounded=0;entryX=0.48;entryY=0.59;entryDx=0;entryDy=0;entryPerimeter=0;" edge="1" parent="VAxVF2x6nKeMdrS-wdlX-222" target="VAxVF2x6nKeMdrS-wdlX-231">
          <mxGeometry width="50" height="50" relative="1" as="geometry">
            <mxPoint x="58.785185185185185" y="108.99473684210525" as="sourcePoint" />
            <mxPoint x="104.71111111111111" y="62.810526315789474" as="targetPoint" />
          </mxGeometry>
        </mxCell>
        <mxCell id="VAxVF2x6nKeMdrS-wdlX-227" value="Faculty Office" style="text;html=1;strokeColor=none;fillColor=none;align=center;verticalAlign=middle;whiteSpace=wrap;rounded=0;fontSize=13;fontStyle=1" vertex="1" parent="VAxVF2x6nKeMdrS-wdlX-222">
          <mxGeometry x="77.15555555555555" y="319.59473684210525" width="91.85185185185185" height="27.710526315789473" as="geometry" />
        </mxCell>
        <mxCell id="VAxVF2x6nKeMdrS-wdlX-228" style="rounded=0;orthogonalLoop=1;jettySize=auto;html=1;exitX=0.5;exitY=1;exitDx=0;exitDy=0;entryX=0.5;entryY=0;entryDx=0;entryDy=0;endArrow=none;endFill=0;" edge="1" parent="VAxVF2x6nKeMdrS-wdlX-222" source="VAxVF2x6nKeMdrS-wdlX-229" target="VAxVF2x6nKeMdrS-wdlX-227">
          <mxGeometry relative="1" as="geometry" />
        </mxCell>
        <mxCell id="VAxVF2x6nKeMdrS-wdlX-229" value="" style="image;html=1;image=img/lib/clip_art/networking/Switch_128x128.png" vertex="1" parent="VAxVF2x6nKeMdrS-wdlX-222">
          <mxGeometry x="87.25925925925925" y="9.236842105263158" width="73.48148148148148" height="73.89473684210526" as="geometry" />
        </mxCell>
        <mxCell id="VAxVF2x6nKeMdrS-wdlX-230" value="" style="group" vertex="1" connectable="0" parent="VAxVF2x6nKeMdrS-wdlX-222">
          <mxGeometry x="183.7037037037037" y="68.35263157894737" width="58.932148148148144" height="92.36842105263158" as="geometry" />
        </mxCell>
        <mxCell id="VAxVF2x6nKeMdrS-wdlX-231" value="" style="image;points=[];aspect=fixed;html=1;align=center;shadow=0;dashed=0;image=img/lib/allied_telesis/computer_and_terminals/Personal_Computer.svg;" vertex="1" parent="VAxVF2x6nKeMdrS-wdlX-230">
          <mxGeometry x="2.1889083597883787" width="52.86679769311975" height="71.64798012199715" as="geometry" />
        </mxCell>
        <mxCell id="VAxVF2x6nKeMdrS-wdlX-232" value="&lt;span style=&quot;font-weight: 400;&quot;&gt;pc4&lt;/span&gt;" style="text;html=1;strokeColor=none;fillColor=none;align=center;verticalAlign=middle;whiteSpace=wrap;rounded=0;fontSize=14;fontStyle=1" vertex="1" parent="VAxVF2x6nKeMdrS-wdlX-230">
          <mxGeometry y="66.97154971564187" width="58.932148148148144" height="25.396871336989708" as="geometry" />
        </mxCell>
        <mxCell id="VAxVF2x6nKeMdrS-wdlX-233" value="" style="group" vertex="1" connectable="0" parent="VAxVF2x6nKeMdrS-wdlX-222">
          <mxGeometry x="183.7037037037037" y="160.72105263157894" width="58.932148148148144" height="92.36842105263158" as="geometry" />
        </mxCell>
        <mxCell id="VAxVF2x6nKeMdrS-wdlX-234" value="" style="image;points=[];aspect=fixed;html=1;align=center;shadow=0;dashed=0;image=img/lib/allied_telesis/computer_and_terminals/Personal_Computer.svg;" vertex="1" parent="VAxVF2x6nKeMdrS-wdlX-233">
          <mxGeometry x="2.1889083597883787" width="52.86679769311975" height="71.64798012199715" as="geometry" />
        </mxCell>
        <mxCell id="VAxVF2x6nKeMdrS-wdlX-235" value="&lt;span style=&quot;font-weight: 400;&quot;&gt;pc5&lt;/span&gt;" style="text;html=1;strokeColor=none;fillColor=none;align=center;verticalAlign=middle;whiteSpace=wrap;rounded=0;fontSize=14;fontStyle=1" vertex="1" parent="VAxVF2x6nKeMdrS-wdlX-233">
          <mxGeometry y="66.97154971564187" width="58.932148148148144" height="25.396871336989708" as="geometry" />
        </mxCell>
        <mxCell id="VAxVF2x6nKeMdrS-wdlX-236" value="" style="group" vertex="1" connectable="0" parent="VAxVF2x6nKeMdrS-wdlX-222">
          <mxGeometry x="5.364148148148177" y="68.35263157894737" width="58.932148148148144" height="92.36842105263158" as="geometry" />
        </mxCell>
        <mxCell id="VAxVF2x6nKeMdrS-wdlX-237" value="" style="image;points=[];aspect=fixed;html=1;align=center;shadow=0;dashed=0;image=img/lib/allied_telesis/computer_and_terminals/Personal_Computer.svg;" vertex="1" parent="VAxVF2x6nKeMdrS-wdlX-236">
          <mxGeometry x="2.1889083597883787" width="52.86679769311975" height="71.64798012199715" as="geometry" />
        </mxCell>
        <mxCell id="VAxVF2x6nKeMdrS-wdlX-238" value="&lt;span style=&quot;font-weight: 400;&quot;&gt;pc1&lt;/span&gt;" style="text;html=1;strokeColor=none;fillColor=none;align=center;verticalAlign=middle;whiteSpace=wrap;rounded=0;fontSize=14;fontStyle=1" vertex="1" parent="VAxVF2x6nKeMdrS-wdlX-236">
          <mxGeometry y="66.97154971564187" width="58.932148148148144" height="25.396871336989708" as="geometry" />
        </mxCell>
        <mxCell id="VAxVF2x6nKeMdrS-wdlX-239" value="" style="group" vertex="1" connectable="0" parent="VAxVF2x6nKeMdrS-wdlX-222">
          <mxGeometry x="5.364148148148177" y="160.72105263157894" width="58.932148148148144" height="92.36842105263158" as="geometry" />
        </mxCell>
        <mxCell id="VAxVF2x6nKeMdrS-wdlX-240" value="" style="image;points=[];aspect=fixed;html=1;align=center;shadow=0;dashed=0;image=img/lib/allied_telesis/computer_and_terminals/Personal_Computer.svg;" vertex="1" parent="VAxVF2x6nKeMdrS-wdlX-239">
          <mxGeometry x="2.1889083597883787" width="52.86679769311975" height="71.64798012199715" as="geometry" />
        </mxCell>
        <mxCell id="VAxVF2x6nKeMdrS-wdlX-241" value="&lt;span style=&quot;font-weight: 400;&quot;&gt;pc2&lt;/span&gt;" style="text;html=1;strokeColor=none;fillColor=none;align=center;verticalAlign=middle;whiteSpace=wrap;rounded=0;fontSize=14;fontStyle=1" vertex="1" parent="VAxVF2x6nKeMdrS-wdlX-239">
          <mxGeometry y="66.97154971564187" width="58.932148148148144" height="25.396871336989708" as="geometry" />
        </mxCell>
        <mxCell id="VAxVF2x6nKeMdrS-wdlX-242" value="" style="group" vertex="1" connectable="0" parent="VAxVF2x6nKeMdrS-wdlX-222">
          <mxGeometry x="5.364148148148177" y="252.1657894736842" width="58.932148148148144" height="92.36842105263158" as="geometry" />
        </mxCell>
        <mxCell id="VAxVF2x6nKeMdrS-wdlX-243" value="" style="image;points=[];aspect=fixed;html=1;align=center;shadow=0;dashed=0;image=img/lib/allied_telesis/computer_and_terminals/Personal_Computer.svg;" vertex="1" parent="VAxVF2x6nKeMdrS-wdlX-242">
          <mxGeometry x="2.1889083597883787" width="52.86679769311975" height="71.64798012199715" as="geometry" />
        </mxCell>
        <mxCell id="VAxVF2x6nKeMdrS-wdlX-244" value="&lt;span style=&quot;font-weight: 400;&quot;&gt;pc3&lt;/span&gt;" style="text;html=1;strokeColor=none;fillColor=none;align=center;verticalAlign=middle;whiteSpace=wrap;rounded=0;fontSize=14;fontStyle=1" vertex="1" parent="VAxVF2x6nKeMdrS-wdlX-242">
          <mxGeometry y="66.97154971564187" width="58.932148148148144" height="25.396871336989708" as="geometry" />
        </mxCell>
        <mxCell id="VAxVF2x6nKeMdrS-wdlX-245" value="" style="group" vertex="1" connectable="0" parent="VAxVF2x6nKeMdrS-wdlX-222">
          <mxGeometry x="183.70370370370372" y="252.1657894736842" width="58.932148148148144" height="92.36842105263158" as="geometry" />
        </mxCell>
        <mxCell id="VAxVF2x6nKeMdrS-wdlX-246" value="" style="image;points=[];aspect=fixed;html=1;align=center;shadow=0;dashed=0;image=img/lib/allied_telesis/computer_and_terminals/Personal_Computer.svg;" vertex="1" parent="VAxVF2x6nKeMdrS-wdlX-245">
          <mxGeometry x="2.1889083597883787" width="52.86679769311975" height="71.64798012199715" as="geometry" />
        </mxCell>
        <mxCell id="VAxVF2x6nKeMdrS-wdlX-247" value="&lt;span style=&quot;font-weight: 400;&quot;&gt;pc6&lt;/span&gt;" style="text;html=1;strokeColor=none;fillColor=none;align=center;verticalAlign=middle;whiteSpace=wrap;rounded=0;fontSize=14;fontStyle=1" vertex="1" parent="VAxVF2x6nKeMdrS-wdlX-245">
          <mxGeometry y="66.97154971564187" width="58.932148148148144" height="25.396871336989708" as="geometry" />
        </mxCell>
        <mxCell id="VAxVF2x6nKeMdrS-wdlX-248" value="&lt;span style=&quot;font-weight: 400; font-size: 13px;&quot;&gt;Switch&lt;/span&gt;" style="text;html=1;strokeColor=none;fillColor=none;align=center;verticalAlign=middle;whiteSpace=wrap;rounded=0;fontSize=13;fontStyle=1" vertex="1" parent="VAxVF2x6nKeMdrS-wdlX-222">
          <mxGeometry x="91.85185185185185" y="55.421052631578945" width="91.85185185185185" height="27.710526315789473" as="geometry" />
        </mxCell>
        <mxCell id="VAxVF2x6nKeMdrS-wdlX-250" style="edgeStyle=orthogonalEdgeStyle;rounded=0;orthogonalLoop=1;jettySize=auto;html=1;exitX=1;exitY=0.5;exitDx=0;exitDy=0;endArrow=none;endFill=0;" edge="1" parent="1" source="VAxVF2x6nKeMdrS-wdlX-229" target="VAxVF2x6nKeMdrS-wdlX-210">
          <mxGeometry relative="1" as="geometry" />
        </mxCell>
        <mxCell id="VAxVF2x6nKeMdrS-wdlX-251" value="" style="rounded=0;whiteSpace=wrap;html=1;fillColor=none;" vertex="1" parent="1">
          <mxGeometry x="-1380" y="60" width="1890" height="920" as="geometry" />
        </mxCell>
      </root>
    </mxGraphModel>
  </diagram>
</mxfile>
